ffmpeg version 4.2.7-0ubuntu0.1 Copyright (c) 2000-2022 the FFmpeg developers
  built with gcc 9 (Ubuntu 9.4.0-1ubuntu1~20.04.1)
  configuration: --prefix=/usr --extra-version=0ubuntu0.1 --toolchain=hardened --libdir=/usr/lib/x86_64-linux-gnu --incdir=/usr/include/x86_64-linux-gnu --arch=amd64 --enable-gpl --disable-stripping --enable-avresample --disable-filter=resample --enable-avisynth --enable-gnutls --enable-ladspa --enable-libaom --enable-libass --enable-libbluray --enable-libbs2b --enable-libcaca --enable-libcdio --enable-libcodec2 --enable-libflite --enable-libfontconfig --enable-libfreetype --enable-libfribidi --enable-libgme --enable-libgsm --enable-libjack --enable-libmp3lame --enable-libmysofa --enable-libopenjpeg --enable-libopenmpt --enable-libopus --enable-libpulse --enable-librsvg --enable-librubberband --enable-libshine --enable-libsnappy --enable-libsoxr --enable-libspeex --enable-libssh --enable-libtheora --enable-libtwolame --enable-libvidstab --enable-libvorbis --enable-libvpx --enable-libwavpack --enable-libwebp --enable-libx265 --enable-libxml2 --enable-libxvid --enable-libzmq --enable-libzvbi --enable-lv2 --enable-omx --enable-openal --enable-opencl --enable-opengl --enable-sdl2 --enable-libdc1394 --enable-libdrm --enable-libiec61883 --enable-nvenc --enable-chromaprint --enable-frei0r --enable-libx264 --enable-shared
  libavutil      56. 31.100 / 56. 31.100
  libavcodec     58. 54.100 / 58. 54.100
  libavformat    58. 29.100 / 58. 29.100
  libavdevice    58.  8.100 / 58.  8.100
  libavfilter     7. 57.100 /  7. 57.100
  libavresample   4.  0.  0 /  4.  0.  0
  libswscale      5.  5.100 /  5.  5.100
  libswresample   3.  5.100 /  3.  5.100
  libpostproc    55.  5.100 / 55.  5.100
Routing option strict to both codec and muxer layer
[h264 @ 0x555f7523fe00] Reinit context to 848x480, pix_fmt: yuv420p
Input #0, mov,mp4,m4a,3gp,3g2,mj2, from '/var/www/html/project/media/video/original/VID-20230428-WA0001.mp4':
  Metadata:
    major_brand     : mp42
    minor_version   : 0
    compatible_brands: mp42isom
  Duration: 00:00:36.04, start: 0.000000, bitrate: 1649 kb/s
    Stream #0:0(und): Video: h264 (Baseline), 1 reference frame (avc1 / 0x31637661), yuv420p(tv, bt709, left), 848x480, 1586 kb/s, 30 fps, 30 tbr, 600 tbn, 1200 tbc (default)
    Stream #0:1(und): Audio: aac (LC) (mp4a / 0x6134706D), 44100 Hz, stereo, fltp, 62 kb/s (default)
Input #1, png_pipe, from '/var/www/html/project/static/images/templates/logo.png':
  Duration: N/A, bitrate: N/A
    Stream #1:0: Video: png, 1 reference frame, rgba(pc), 1920x1080 [SAR 2835:2835 DAR 16:9], 25 tbr, 25 tbn, 25 tbc
[Parsed_scale_0 @ 0x555f7527c080] w:1280 h:720 flags:'bilinear' interl:0
[Parsed_scale_2 @ 0x555f75244300] w:1280 h:720 flags:'bilinear' interl:0
Stream mapping:
  Stream #0:0 (h264) -> scale (graph 0)
  Stream #1:0 (png) -> scale (graph 0)
  overlay (graph 0) -> Stream #0:0 (libx264)
  Stream #0:1 -> #0:1 (aac (native) -> aac (native))
Press [q] to stop, [?] for help
[h264 @ 0x555f75279dc0] Reinit context to 848x480, pix_fmt: yuv420p
[graph_1_in_0_1 @ 0x555f757aad00] tb:1/44100 samplefmt:fltp samplerate:44100 chlayout:0x3
[Parsed_scale_0 @ 0x555f7584ddc0] w:1280 h:720 flags:'bilinear' interl:0
[Parsed_scale_2 @ 0x555f7594d780] w:1280 h:720 flags:'bilinear' interl:0
[graph 0 input from stream 0:0 @ 0x555f7594fc00] w:848 h:480 pixfmt:yuv420p tb:1/600 fr:30/1 sar:0/1 sws_param:flags=2
[graph 0 input from stream 1:0 @ 0x555f75950c80] w:1920 h:1080 pixfmt:rgba tb:1/25 fr:25/1 sar:2835/2835 sws_param:flags=2
[Parsed_scale_0 @ 0x555f7584ddc0] w:848 h:480 fmt:yuv420p sar:0/1 -> w:1280 h:720 fmt:yuv420p sar:0/1 flags:0x2
[Parsed_setsar_1 @ 0x555f7594ce40] w:1280 h:720 sar:0/1 dar:16/9 -> sar:1/1 dar:16/9
[Parsed_scale_2 @ 0x555f7594d780] w:1920 h:1080 fmt:rgba sar:2835/2835 -> w:1280 h:720 fmt:yuva420p sar:1/1 flags:0x2
[Parsed_setsar_3 @ 0x555f7594e1c0] w:1280 h:720 sar:1/1 dar:16/9 -> sar:1/1 dar:16/9
[Parsed_overlay_4 @ 0x555f7594ee40] main w:1280 h:720 fmt:yuv420p overlay w:1280 h:720 fmt:yuva420p
[Parsed_overlay_4 @ 0x555f7594ee40] [framesync @ 0x555f7594ef68] Selected 1/600 time base
[Parsed_overlay_4 @ 0x555f7594ee40] [framesync @ 0x555f7594ef68] Sync level 2
[libx264 @ 0x555f752a8340] using SAR=1/1
[libx264 @ 0x555f752a8340] using cpu capabilities: MMX2 SSE2Fast SSSE3 SSE4.2 AVX FMA3 BMI2 AVX2
[libx264 @ 0x555f752a8340] profile High, level 3.1
[libx264 @ 0x555f752a8340] 264 - core 155 r2917 0a84d98 - H.264/MPEG-4 AVC codec - Copyleft 2003-2018 - http://www.videolan.org/x264.html - options: cabac=1 ref=1 deblock=1:0:0 analyse=0x3:0x113 me=hex subme=2 psy=1 psy_rd=1.00:0.00 mixed_ref=0 me_range=16 chroma_me=1 trellis=0 8x8dct=1 cqm=0 deadzone=21,11 fast_pskip=1 chroma_qp_offset=0 threads=22 lookahead_threads=5 sliced_threads=0 nr=0 decimate=1 interlaced=0 bluray_compat=0 constrained_intra=0 bframes=3 b_pyramid=2 b_adapt=1 b_bias=0 direct=1 weightb=1 open_gop=0 weightp=1 keyint=250 keyint_min=25 scenecut=40 intra_refresh=0 rc_lookahead=10 rc=crf mbtree=1 crf=18.0 qcomp=0.60 qpmin=0 qpmax=69 qpstep=4 ip_ratio=1.40 aq=1:1.00
Output #0, mp4, to '/var/www/html/project/media/video/watermarks/VID-20230428-WA0001.mp4':
  Metadata:
    major_brand     : mp42
    minor_version   : 0
    compatible_brands: mp42isom
    encoder         : Lavf58.29.100
    Stream #0:0: Video: h264 (libx264), 1 reference frame (avc1 / 0x31637661), yuv420p, 1280x720 [SAR 1:1 DAR 16:9], q=-1--1, 30 fps, 15360 tbn, 30 tbc (default)
    Metadata:
      encoder         : Lavc58.54.100 libx264
    Side data:
      cpb: bitrate max/min/avg: 0/0/0 buffer size: 0 vbv_delay: -1
    Stream #0:1(und): Audio: aac (LC) (mp4a / 0x6134706D), 44100 Hz, stereo, fltp, delay 1024, 128 kb/s (default)
    Metadata:
      encoder         : Lavc58.54.100 aac
[Parsed_overlay_4 @ 0x555f7594ee40] [framesync @ 0x555f7594ef68] Sync level 0
No more output streams to write to, finishing.
frame= 1079 fps= 97 q=-1.0 Lsize=   20023kB time=00:00:36.03 bitrate=4551.6kbits/s speed=3.25x    
[AVIOContext @ 0x555f7523e0c0] Statistics: 0 seeks, 22 writeouts
video:19416kB audio:568kB subtitle:0kB other streams:0kB global headers:0kB muxing overhead: 0.196534%
Input file #0 (/var/www/html/project/media/video/original/VID-20230428-WA0001.mp4):
  Input stream #0:0 (video): 1079 packets read (7134192 bytes); 1079 frames decoded; 
  Input stream #0:1 (audio): 1552 packets read (283734 bytes); 1552 frames decoded (1589248 samples); 
  Total: 2631 packets (7417926 bytes) demuxed
Input file #1 (/var/www/html/project/static/images/templates/logo.png):
  Input stream #1:0 (video): 1 packets read (111578 bytes); 1 frames decoded; 
  Total: 1 packets (111578 bytes) demuxed
Output file #0 (/var/www/html/project/media/video/watermarks/VID-20230428-WA0001.mp4):
  Output stream #0:0 (video): 1079 frames encoded; 1079 packets muxed (19881883 bytes); 
  Output stream #0:1 (audio): 1552 frames encoded (1589248 samples); 1553 packets muxed (581290 bytes); 
  Total: 2632 packets (20463173 bytes) muxed
[AVIOContext @ 0x555f75256840] Statistics: 2 seeks, 82 writeouts
[libx264 @ 0x555f752a8340] frame I:5     Avg QP:17.64  size:150759
[libx264 @ 0x555f752a8340] frame P:293   Avg QP:20.27  size: 46927
[libx264 @ 0x555f752a8340] frame B:781   Avg QP:23.88  size:  6886
[libx264 @ 0x555f752a8340] consecutive B-frames:  2.6%  1.5%  3.6% 92.3%
[libx264 @ 0x555f752a8340] mb I  I16..4:  0.4%  5.5% 94.1%
[libx264 @ 0x555f752a8340] mb P  I16..4:  0.4%  3.3%  2.9%  P16..4: 42.2% 26.8% 22.4%  0.0%  0.0%    skip: 2.0%
[libx264 @ 0x555f752a8340] mb B  I16..4:  0.1%  0.1%  0.0%  B16..8: 21.3%  8.7%  1.4%  direct:16.5%  skip:52.0%  L0:29.5% L1:43.7% BI:26.8%
[libx264 @ 0x555f752a8340] 8x8 transform intra:41.4% inter:42.1%
[libx264 @ 0x555f752a8340] coded y,uvDC,uvAC intra: 87.4% 59.3% 20.2% inter: 26.1% 14.8% 0.5%
[libx264 @ 0x555f752a8340] i16 v,h,dc,p: 20% 44% 21% 15%
[libx264 @ 0x555f752a8340] i8 v,h,dc,ddl,ddr,vr,hd,vl,hu: 17% 34% 15%  4%  6%  5%  7%  5%  8%
[libx264 @ 0x555f752a8340] i4 v,h,dc,ddl,ddr,vr,hd,vl,hu: 13% 36% 11%  5%  6%  5%  9%  5%  9%
[libx264 @ 0x555f752a8340] i8c dc,h,v,p: 53% 28% 13%  6%
[libx264 @ 0x555f752a8340] Weighted P-Frames: Y:8.2% UV:1.0%
[libx264 @ 0x555f752a8340] kb/s:4422.14
[aac @ 0x555f752811c0] Qavg: 290.868
[AVIOContext @ 0x555f75247040] Statistics: 13172406 bytes read, 172 seeks
[AVIOContext @ 0x555f75256c80] Statistics: 111578 bytes read, 0 seeks
